<?xml version="1.0" standalone="no"?><!DOCTYPE svg PUBLIC "-//W3C//DTD SVG 1.1//EN" "http://www.w3.org/Graphics/SVG/1.1/DTD/svg11.dtd"><svg t="1721178062025" class="icon" viewBox="0 0 1024 1024" version="1.1" xmlns="http://www.w3.org/2000/svg" p-id="12119" xmlns:xlink="http://www.w3.org/1999/xlink" width="200" height="200"><path d="M909.653333 402.56L116.949333 293.781333a9.557333 9.557333 0 0 0-7.466666 2.154667 7.808 7.808 0 0 0-2.816 5.930667v477.226666c0 3.925333 3.157333 7.466667 7.872 8.106667l792.533333 108.693333a9.557333 9.557333 0 0 0 7.466667-2.154666 7.808 7.808 0 0 0 2.794666-5.930667v-477.226667c0-3.904-3.157333-7.466667-7.68-8.064z m5.610667-42.304c25.6 3.413333 44.736 24.917333 44.736 50.346667v477.226666c0 14.677333-6.421333 28.629333-17.664 38.272a52.224 52.224 0 0 1-40.896 12.117334L108.736 829.482667C83.136 826.069333 64 804.565333 64 779.136V301.866667c0-14.677333 6.421333-28.629333 17.664-38.272a52.224 52.224 0 0 1 40.896-12.096l792.704 108.736z m-6.912-103.402667V136.149333a7.808 7.808 0 0 0-2.816-5.909333 9.557333 9.557333 0 0 0-7.466667-2.154667l-502.250666 66.133334 512.533333 62.634666zM229.44 173.077333L892.522667 85.76a52.224 52.224 0 0 1 40.853333 12.138667c11.221333 9.642667 17.642667 23.573333 17.642667 38.229333v143.914667c0 6.314667-2.773333 12.352-7.594667 16.533333a22.698667 22.698667 0 0 1-17.621333 5.376l-696.149334-85.098667c-26.133333-3.2-26.304-40.384-0.213333-43.797333z" fill="#1296db" p-id="12120"></path></svg>