<?xml version="1.0" standalone="no"?><!DOCTYPE svg PUBLIC "-//W3C//DTD SVG 1.1//EN" "http://www.w3.org/Graphics/SVG/1.1/DTD/svg11.dtd"><svg t="1721179882155" class="icon" viewBox="0 0 1024 1024" version="1.1" xmlns="http://www.w3.org/2000/svg" p-id="6699" xmlns:xlink="http://www.w3.org/1999/xlink" width="200" height="200"><path d="M515.673158 63.83998l-3.739161 0c-243.256256 0-442.812221 201.194278-444.828135 444.482257C65.088926 753.627153 263.013741 946.5787 508.325819 960.158996l3.740184 0c243.255233 0 442.812221-201.201441 444.827111-444.49556C958.909028 270.365684 760.984213 63.83998 515.673158 63.83998zM929.732521 515.457752c-1.896186 228.447992-189.264575 417.539628-417.665495 417.539628l-3.52836 0c-230.324736-13.579273-416.167375-194.118116-414.271188-424.456155C96.163665 280.100396 283.53103 90.994434 511.932973 90.994434l3.527336 0.019443C745.786069 92.924389 931.628708 285.119713 929.732521 515.457752zM709.075982 296.876478 437.51917 426.819992c-2.732228 1.320065-4.946662 3.494591-6.28617 6.200212L296.912805 702.289927c-2.600221 5.184069-1.604544 11.45796 2.466168 15.595186 2.612501 2.65241 6.126534 4.059456 9.6815 4.059456 1.989307 0 3.991917-0.451278 5.862521-1.327228l271.463692-129.863696c2.732228-1.299599 4.933359-3.474125 6.287193-6.179746l134.412292-269.375124c2.600221-5.185093 1.604544-11.44568-2.466168-15.582907C720.533942 295.470455 714.288704 294.403147 709.075982 296.876478zM570.459948 568.268538 338.861196 679.053714 453.446931 449.326589l231.676523-110.866017L570.459948 568.268538z" p-id="6700" fill="#2c2c2c"></path></svg>