<?xml version="1.0" standalone="no"?><!DOCTYPE svg PUBLIC "-//W3C//DTD SVG 1.1//EN" "http://www.w3.org/Graphics/SVG/1.1/DTD/svg11.dtd"><svg t="1721178459172" class="icon" viewBox="0 0 1024 1024" version="1.1" xmlns="http://www.w3.org/2000/svg" p-id="28945" xmlns:xlink="http://www.w3.org/1999/xlink" width="200" height="200"><path d="M932.831297 825.850877c-2.322415-55.737967-28.379915-115.516937-71.530391-164.612796-38.366301-43.661407-89.598782-78.96212-152.303994-104.369343a516.876747 516.876747 0 0 0-101.4431-29.448226c107.109793-38.180507 183.703049-138.276606 183.703049-255.465682 0-149.935131-125.410426-271.95483-279.711697-271.95483S231.833466 122.066148 231.833466 272.001279c0 116.724592 76.035877 216.495553 182.495394 255.001199a511.349399 511.349399 0 0 0-70.322735 17.882597c-118.071593 39.295267-208.64579 121.137182-242.274363 218.910866-10.079282 29.215984-13.051974 54.762553-9.289662 77.986705 4.92352 29.401778 21.180427 57.456554 48.213342 83.606951 67.257147 64.470248 163.358692 82.538639 229.826217 90.574196a1141.60646 1141.60646 0 0 0 136.418674 8.035557 1265.344747 1265.344747 0 0 0 137.719227-7.617522c63.959317-7.013694 137.765675-19.694082 200.192198-60.707936 50.16417-32.978297 79.194361-69.022182 86.254504-107.109793a100.514134 100.514134 0 0 0 1.765035-22.713222z" fill="#1afa29" p-id="28946" data-spm-anchor-id="a313x.search_index.0.i24.59253a81tYaPns" class="selected"></path></svg>