<?xml version="1.0" standalone="no"?><!DOCTYPE svg PUBLIC "-//W3C//DTD SVG 1.1//EN" "http://www.w3.org/Graphics/SVG/1.1/DTD/svg11.dtd"><svg t="1721177896679" class="icon" viewBox="0 0 1024 1024" version="1.1" xmlns="http://www.w3.org/2000/svg" p-id="3149" xmlns:xlink="http://www.w3.org/1999/xlink" width="200" height="200"><path d="M492.928 512.4224L305.1392 404.608c-22.4512-12.8768-21.2992-45.6192 1.9968-56.896l182.9376-88.4864a32.192 32.192 0 0 1 27.2256-0.384l196.7744 88.4992c24.1024 10.8416 25.984 40.96 2.9824 53.888l-192.2816 111.36a32.1792 32.1792 0 0 1-31.808-0.1536h-0.0128z m19.0208-27.392l188.9152-108.3392-196.7872-88.4992-182.9376 88.4992 190.8096 108.3392z" fill="#1296db" p-id="3150"></path><path d="M495.9488 733.952V512.8576c0-11.4688 6.08-22.0544 16-27.8272L704.3584 372.9664c21.4528-12.48 48.384 2.9952 48.384 27.8272v225.3696c0 11.648-6.2976 22.3872-16.4608 28.0832L543.872 762.0224c-21.4528 12.032-47.9232-3.4816-47.9232-28.0832z m32.1792 0l192.4224-107.7888V400.7936L528.128 512.8576v221.0944z" fill="#d81e06" p-id="3151"></path><path d="M496.3072 514.0864v219.584l-195.328-107.456V401.792a32 32 0 0 1-11.4688-31.0272A32.0384 32.0384 0 0 0 268.8 400.8448v225.3696c0 11.7376 6.3872 22.5536 16.6784 28.2112l195.3152 107.456c21.4528 11.8016 47.6928-3.712 47.6928-28.2112V512.5632c0-0.6784 0.0512 0.6912 0 0-8.7808 4.9408-23.04 5.44-32.1792 1.5232" fill="#f4ea2a" p-id="3152"></path></svg>