<?xml version="1.0" standalone="no"?><!DOCTYPE svg PUBLIC "-//W3C//DTD SVG 1.1//EN" "http://www.w3.org/Graphics/SVG/1.1/DTD/svg11.dtd"><svg t="1721177969111" class="icon" viewBox="0 0 1024 1024" version="1.1" xmlns="http://www.w3.org/2000/svg" p-id="9210" data-spm-anchor-id="a313x.search_index.0.i6.59253a81tYaPns" xmlns:xlink="http://www.w3.org/1999/xlink" width="200" height="200"><path d="M342.887 543.268c-45.248 0-82.294-36.481-82.294-81.444 0-44.681 36.763-81.164 82.294-81.164s82.294 36.481 82.294 81.164c-0.285 44.965-37.047 81.444-82.294 81.444zM342.887 420.251c-23.471 0-42.42 18.665-42.42 41.572s18.948 41.572 42.42 41.572 42.42-18.665 42.42-41.572-19.229-41.572-42.42-41.572zM327.051 825.498l-32.522-23.19 230.196-322.954 87.668 118.208 114.532-180.141 157.799 231.045-32.804 22.341-123.865-181.273-113.118 178.162-89.647-120.754zM788.858 833.697h-550.887c-54.863 0-99.262-44.681-99.262-99.262v-402.419c0-54.863 44.681-99.262 99.262-99.262h550.605c54.863 0 99.262 44.681 99.262 99.262v402.419c0.285 54.863-44.401 99.262-98.979 99.262zM237.971 272.348c-32.804 0-59.67 26.866-59.67 59.67v402.419c0 32.804 26.866 59.67 59.67 59.67h550.605c32.804 0 59.67-26.866 59.67-59.67v-402.419c0-32.804-26.866-59.67-59.67-59.67h-550.605zM751.81 195.144h-471.421c-11.028 0-19.795-8.767-19.795-19.795s8.767-19.795 19.795-19.795h471.138c11.028 0 19.795 8.767 19.795 19.795s-8.767 19.795-19.513 19.795z" p-id="9211" fill="#5790d1"></path></svg>