<?xml version="1.0" standalone="no"?><!DOCTYPE svg PUBLIC "-//W3C//DTD SVG 1.1//EN" "http://www.w3.org/Graphics/SVG/1.1/DTD/svg11.dtd"><svg t="1721180088954" class="icon" viewBox="0 0 1152 1024" version="1.1" xmlns="http://www.w3.org/2000/svg" p-id="14642" width="144" height="128" xmlns:xlink="http://www.w3.org/1999/xlink"><path d="M96.48 771.008C34.08 690.56 0 595.52 0 496 0 220.832 258.912 0 576 0s576 220.832 576 496S893.088 992 576 992c-103.488 0-203.04-23.52-290.4-67.488l-212.8 72c-26.048 8.832-50.336-17.12-39.84-42.528l71.456-172.992-7.936-9.984z m181.504 88.512a32 32 0 0 1 25.28 2.08C384.256 904.736 478.08 928 576 928c283.808 0 512-194.656 512-432S859.808 64 576 64 64 258.656 64 496c0 94.144 35.84 183.808 101.408 257.984a32 32 0 0 1 5.6 33.408L119.04 913.28l158.976-53.76z" fill="#000000" p-id="14643"></path></svg>